<?xml version="1.0" encoding="utf-8"?>
<!-- Generator: Adobe Illustrator 24.0.0, SVG Export Plug-In . SVG Version: 6.00 Build 0)  -->
<svg version="1.1" id="图层_1" xmlns="http://www.w3.org/2000/svg" xmlns:xlink="http://www.w3.org/1999/xlink" x="0px" y="0px"
	 viewBox="0 0 400.5 171.2" style="enable-background:new 0 0 400.5 171.2;" xml:space="preserve">
<style type="text/css">
	.st0{fill:#EC6F00;}
	.st1{fill:#AAAAA0;}
	.st2{fill:#231815;}
</style>
<path class="st0" d="M1.9,92.9h32.6l3.4-15.7C26,81.9,14,86.8,2.1,92.2L1.9,92.9z"/>
<path class="st0" d="M295,19.1c-14.7,1.3-30.5,3-47.1,5.2l-42,68.9h30.4l6.6-12.1h31.8l0.9,12.2h31.2L295,19.1z M252.9,62.2
	L270.3,30l3.1,32.2H252.9z"/>
<path class="st0" d="M322.1,17.1c-5,6.6-14.8,23.6,5.7,35c5.7,3.3,12,5.6,18.5,6.9c17.3,3.6,16.5,8.3,16.5,8.3s0.7,7-14.7,7.4
	c-14.5,0.5-12.6-9.5-12.6-9.5h-30.1c0,0-6.2,29.1,36.4,29.2c0,0,36.9,0.9,48.7-22.8c0,0,5.2-9.1,2.4-16.6c0,0-2.6-12.2-27.4-17.7
	c0,0-25.2-4.6-18.1-13.2c0,0,2.5-2.9,8-3.2c0,0,13.8-1.1,13.3,8l29.6,0.1c0.7-4.6,0-9.3-1.9-13.5C382.4,15.2,356.3,15,322.1,17.1z"
	/>
<path class="st0" d="M98.9,67.3c0,0,0.8,7-14.7,7.4c-14.5,0.5-12.6-9.5-12.6-9.5H71c-9.6,3.3-19.3,6.7-28.9,10.4
	c2.4,8.4,10.4,18.7,35.8,18.8c0,0,36.9,0.9,48.7-22.8c0,0,5.2-9.1,2.4-16.6c0,0-0.6-2.8-3.9-6.3c-12.6,3.4-25.3,7.1-38.2,11.2
	C99.6,63.4,98.9,67.3,98.9,67.3z"/>
<path class="st0" d="M200.2,36.4h28.1c0.6-3.1,0.7-6.2,0.3-9.3c-9.2,1.4-18.6,3-28.3,4.8C200.4,33.4,200.4,34.9,200.2,36.4z"/>
<path class="st1" d="M54.1,3.2H23.2L7,71.3c11.5-4.5,23.2-8.6,34.9-12.4L54.1,3.2z"/>
<path class="st1" d="M292.6,3.1L261,2.9l-8.4,13.6c14.5-1.4,28.4-2.5,41.5-3.3L292.6,3.1z"/>
<path class="st1" d="M393.7,11.2c-0.3-0.5-0.6-0.9-1-1.3c-3.5-3.6-8.9-6.6-17.3-7.9c0,0-29.4-4.5-47,8.9l-0.8,0.7
	C356.7,10.6,379.6,10.8,393.7,11.2z"/>
<path class="st1" d="M101.7,37.4c0,0-25.2-4.6-18.1-13.2c0,0,2.5-2.9,8-3.2c0,0,15.9-2.1,13.3,8l29.6,0.1c0.7-4.8,0-9.8-2.2-14.2
	c-1-1.8-2.2-3.5-3.6-5c-3.5-3.6-8.9-6.6-17.3-7.9c0,0-29.4-4.5-47,8.9c-1.4,1.1-2.7,2.2-3.9,3.4l0,0c0,0-0.2,0.2-0.5,0.5
	s-0.8,0.9-1.1,1.3l0,0C54.4,21.9,42.4,40,63.8,52c15.4-4.6,30.9-8.6,46.2-12.3C107.3,38.8,104.5,38,101.7,37.4z"/>
<path class="st1" d="M175.6,26.6c2.8-1.9,6-3.2,9.4-3.5c2.8-0.5,5.7-0.2,8.4,0.8c11.4-1.7,22.6-3.2,33.5-4.5
	c-1.4-4-3.9-7.5-7.1-10.2c-3.5-2.9-7.4-5.2-11.6-6.7c-4.5-1.7-10.1-2.4-16.9-2.3c-6,0.2-11.9,1.2-17.6,3c-6.8,2.2-13.2,5.6-18.9,10
	c-6.1,4.5-11.3,11.3-15.6,20.3C151.4,30.9,163.5,28.6,175.6,26.6L175.6,26.6z"/>
<path class="st0" d="M132.9,54c-0.9,5.8-0.6,11.8,0.7,17.5c1.3,5.3,4.1,10.2,8,14.1c4,4.1,9.5,7,16.5,8.8c7.9,2.1,16.6,2.1,26.1-0.1
	c9.5-2.2,16.8-5.6,21.9-10.4c7.4-7,13.2-15.6,16.9-25.1h-27.5l-3,4.8c-1.5,2.2-3.5,4.1-5.9,5.3c-3.6,2.3-7.9,3.2-12.1,2.6
	c-4-0.6-6.9-2.1-8.8-4.5c-1.9-2.5-2.9-5.5-3-8.6c-0.2-3.8,0.2-7.5,1.1-11.2c0.6-2.9,1.5-5.7,2.6-8.5c-10.5,2.3-21.2,4.9-32.1,7.7
	C133.7,48.9,133.2,51.5,132.9,54z"/>
<g>
	<path class="st2" d="M20.4,138.4h4.5v-13.8H14.4v-3c0-0.8,0.1-1.6,0.4-2.3c0.1-0.2,0.1-0.3,0.1-0.3c0,0-0.2-0.2-0.8-0.2h-1.3H9.9
		v5.9H0v14.1h4.1v-2.2H10v10.5h4.3v-10.5h6V138.4z M10,133.3H4.1V128H10V133.3z M14.4,133.3V128h6v5.3H14.4z"/>
	<path class="st2" d="M61.2,136c-0.1-0.2-0.7-1.1-1.7-2.8h1.5v-3h-5.4v-2.7h5.9v-3H46.2v3h5.4v2.7h-4.9l0,3h4.9v4H46v3.1h15.7v-3.1
		h-2.3L61.2,136z M57.9,137.2L57.9,137.2l-2.4,0v-4h2.4l-1.8,1.2C56.8,135.3,57.4,136.3,57.9,137.2z"/>
	<path class="st2" d="M41.3,147l3.9,0v-1.6h17.4v1.3h4v-27.2H41.3V147z M45.1,122.8h17.4v19.4H45.1V122.8z"/>
	<path class="st2" d="M99.2,127.5l2.8-2.2c-0.1-0.5-1.3-2.1-3.5-4.8l-3,2.2c1.3,1.6,2.3,3,3.1,4C98.8,127.1,99,127.4,99.2,127.5z"/>
	<path class="st2" d="M92.7,138l0.5-0.4l0.4,2.7l8.8-1.3v7.8h3.9v-8.4l3.5-0.6l-0.2-3.1l-3.2,0.5v-13.5c0-0.7,0.1-1.3,0.2-1.9
		c0-0.2,0-0.3,0-0.3c0-0.3-0.5-0.5-1.6-0.5h-2.5l0,16.9l-8.1,1.2l1.3-1.1c-1.1-1.5-2.2-2.9-3.5-4.3l-1.7,1.2V130h4.1v-3.1h-4.1v-3.7
		l4-0.4c0.1,0,0.1-0.1,0.1-0.2c0-0.2,0-0.3-0.1-0.5c-0.2-0.3-0.4-0.8-0.8-1.5s-0.6-1.1-0.8-1.5c-3.7,0.9-7.4,1.5-11.2,1.7
		c0.6,0.9,1.1,1.9,1.3,3l3.9-0.4v3.4h-5.1v3.1h4.5c-1.2,3.3-3,6.3-5.2,9c0.1,0.2,0.3,0.3,0.4,0.5c0.7,0.8,1.4,1.6,2,2.5
		c0.9-1.4,1.8-2.8,2.5-4.3c0.3-0.5,0.5-1,0.8-1.5v10.3h3.6V135c0.7,0.8,1.3,1.7,1.9,2.5C92.4,137.7,92.6,137.9,92.7,138z"/>
	<path class="st2" d="M101.1,133.6L101.1,133.6c-0.9-1.9-1.9-3.8-3-5.7l-3.3,1.9c1.2,1.6,2.2,3.4,3,5.3L101.1,133.6z"/>
	<path class="st2" d="M135.2,142c-0.5,0.8-1.6,1.3-3.1,1.3c-0.2,0-0.4,0-0.5,0.1c0.6,1.3,1,2.6,1.2,4c2.9,0,4.8-0.3,5.5-0.7
		c0.8-0.3,1.1-1.2,1-2.5v-4h10.9v-3.4h-10.7v-0.3c2.5-1.2,4.5-3.3,5.4-5.9h-16.5v3.3h9.5c-0.6,0.5-1.4,0.9-2.1,1.2c0,0-0.1,0-0.1,0
		c-0.3,0.1-0.5,0.4-0.4,0.8v1h-11.8v3.4h11.8V142z"/>
	<path class="st2" d="M139.3,123.6c-0.2-1.3-0.4-2.7-0.8-4c-0.1-0.3-0.1-0.5-0.2-0.8c-0.9,0.1-2.1,0.2-3.6,0.5l-0.9,0.1
		c0.6,1.9,1.1,3.6,1.4,4.8C136.5,124.1,137.8,123.9,139.3,123.6z"/>
	<path class="st2" d="M127.5,128.5h18.2v3.1h4.1v-6.5h-5.9c0.6-0.7,1.2-1.4,1.7-2.1l1.1-1.3l0.7-0.7c0.5-0.4,0.6-0.7,0.6-0.8
		c-1.5-0.7-3-1.4-4.6-1.8c-1,2.4-2.3,4.7-3.9,6.8h-8.8l0.6-0.3c1.1-0.6,1.8-1,2.1-1.2c-0.9-1.5-1.9-2.9-3-4.3
		c-1.5,0.6-2.8,1.3-4,1.9c1.2,1.2,2.2,2.6,3.1,4h-6v6.4h3.9V128.5z"/>
	<path class="st2" d="M173.9,128h1.8v2.4h12.9V128h1.9v-6h-6.1c-0.2-1.2-0.5-2.3-1-3.4c-1.3,0-2.7,0.2-4,0.4
		c0.1,0.3,0.2,0.6,0.3,0.8c0.3,0.7,0.6,1.5,0.8,2.2h-6.6L173.9,128z M177.5,125h9v2.4h-9V125z"/>
	<path class="st2" d="M191.9,141.4c-1.2-0.2-2.4-0.7-3.4-1.3c0,2.1-0.3,3.1-1.1,3h-1.2c-0.3,0-0.5-0.3-0.6-0.8v-6.4h5.3v-3.3h-17.5
		v2.4c-0.2-1.9-0.9-3.7-1.9-5.2c0.1-0.5,0.3-1.5,0.6-3c0.5-2.3,0.9-4.5,1.2-6.7h-8.9l0,26.7h3.5v-8.7c0.5,0.8,0.7,1.7,0.8,2.7
		c3.3-0.2,4.9-1.8,4.7-4.9h4.1c0.2,4.1-2.2,6.8-7.1,7.9c1.1,0.8,1.9,1.8,2.5,3c3.3-1.4,5.4-2.9,6.5-4.3c1-1.5,1.6-3.5,1.5-6.6h1.1
		v8.5c0,1.3,0.8,1.9,2.4,1.9h3.7c1,0.2,2.1-0.2,2.8-1C191.6,144.1,192,142.8,191.9,141.4z M168,137.3v-14.2h1.8
		c-0.2,2.5-0.8,4.9-1.7,7.2c1.4,1.1,2.3,2.8,2.3,4.6C170.5,136.5,169.7,137.3,168,137.3z"/>
	<path class="st2" d="M205.7,137.7c0,0.1,0.3,1.5,0.8,4.1c1.8-0.6,3.7-1,5.5-1.2v6h3.4V140l4.5-0.5v-3.1c-1.1,0.2-2.5,0.3-4.5,0.5
		v-2.5h3.5v-3h-3.5v-1.4c0-0.7,0.1-1.3,0.2-2c0-0.2,0-0.4,0-0.6c-0.1-0.1-0.3-0.3-0.7-0.3c-0.7-0.1-1.5-0.1-2.2-0.1H212v4.3h-1.9
		c0.2-0.6,0.7-2,1.6-4.1c0.4-0.9,0.6-1.5,0.7-1.7h6.4v-3h-5.3c0.4-0.9,0.8-1.8,1.3-2.7c-1.3-0.6-2.6-1-4-1.2c-0.2,0.7-0.5,1.8-1,3.5
		c0,0.1-0.1,0.3-0.1,0.4h-4v3l3.1,0c-0.2,0.6-0.4,1.2-0.6,1.8c-0.2,1.2-0.8,2.4-1.6,3.4c-0.1,0.1-0.2,0.2-0.4,0.3
		c-0.3,0.2-0.4,0.3-0.4,0.4c0.2,1.2,0.5,2.4,1,3.5c1.1-0.2,2.7-0.3,4.9-0.5h0.3v2.8C210.6,137.4,208.5,137.5,205.7,137.7z"/>
	<path class="st2" d="M226.9,131.9v-0.7c0-0.7,0-1.3,0.2-2c0-0.1,0.1-0.3,0.1-0.4c0-0.4-0.7-0.6-2.2-0.6h-2v3.7
		c0.2,5.9-2.1,10.1-6.8,12.6c1.2,0.7,2.3,1.6,3.3,2.7c2.6-2,4.7-4.6,5.9-7.7c1,2.9,2.8,5.4,5.2,7.3c1-1.2,2.1-2.3,3.3-3.3
		C229.4,140.6,227.1,136.7,226.9,131.9z"/>
	<path class="st2" d="M220.6,130.7c0.7-1.2,1.3-2.4,1.8-3.6h6.4c-0.2,0.7-0.4,1.6-0.7,2.9c1.3,0,2.6,0.1,3.9,0.2
		c0.6-2.1,1.1-4.3,1.4-6.5h-9.8c0.5-1.3,1.2-2.6,2.1-3.7c-0.5-0.2-1-0.4-1.5-0.5c-1.1-0.3-2.1-0.5-3.1-0.9c-0.6,3.8-2,7.5-4.1,10.7
		C218.2,129.7,219.4,130.2,220.6,130.7z"/>
	<path class="st2" d="M268,147v-10h7.5v-3.4H268v-5.3h5.9v-3.2H268v-3.6c0-0.4,0.1-0.9,0.3-1.2c0.1-0.2,0.2-0.5,0.1-0.8
		c0-0.2-0.3-0.3-0.6-0.4c-0.8-0.1-1.5-0.1-2.3-0.1h-1.3v6.2h-2.4c0.1-0.2,0.3-0.8,0.4-1.3c0.1-0.5,0.2-0.9,0.3-1.1s0.1-0.3,0.1-0.5
		c0-0.1-0.2-0.1-0.4-0.1c-1.1-0.3-2.2-0.6-3.4-0.7c-0.4,3.5-1.4,6.9-2.9,10.1c1.1,0.2,2.2,0.7,3.1,1.2c0.7-1.4,1.3-2.8,1.8-4.3h3.4
		v5.3h-8.2v3.4h8.2v10H268z"/>
	<path class="st2" d="M249.3,135.7c0.1,0.1,0.1,0.1,0.1,0.1c0,0,0,0,0-0.1c0.7-0.8,1.4-1.6,1.9-2.5v13.5h3.8v-20.4
		c0.3-0.9,0.9-2.6,1.8-5.1c0.1-0.3,0.2-0.5,0.3-0.8c0.1-0.3,0-0.5-0.4-0.6c-1.3-0.5-2.7-0.8-4.1-1c-1,6.4-3,11.2-5.9,14.5v0.1
		C247.7,134,248.6,134.8,249.3,135.7z"/>
	<path class="st2" d="M313.6,146.8v-13h3.4v-3.4h-3.4v-7.3h2.3v-3.3h-15v0.7h-12.3l0.1,3.3h3.7c-0.5,3.8-2,7.3-4.3,10.2
		c0.3,0.3,0.6,0.9,1.1,1.7s0.8,1.2,1,1.6l1.1-1.2v7.7h3.4V141h2.3v1h3.6v-8.3h3v0.7c0.1,4.4-1.6,7.7-5.2,9.9
		c1.3,0.7,2.5,1.6,3.6,2.5c3.4-3.3,5.3-7.9,5.2-12.6v-0.5h2.5v13H313.6z M297,138.1h-2.3v-6.6h2.3V138.1z M303.7,130.5h-3v-2.2h-5.6
		c0.4-1.1,0.8-2.3,1-3.5l0,0c0.1-0.5,0.2-0.9,0.2-1.1h5v-0.7h2.4V130.5z M307.4,130.6V123h2.4v7.6H307.4z"/>
	<path class="st2" d="M344.3,128.3l1,0.6c2.5,1.5,5,3.3,7.2,5.2l2.9-2.9h0c-2.6-2-5.4-3.8-8.3-5.3
		C346.3,126.8,345.4,127.6,344.3,128.3z"/>
	<path class="st2" d="M343.6,137h3.1v7.2c0,0.4,0,0.8,0.1,1.2c0.1,0.2,0.2,0.5,0.4,0.6c0.9,0.4,1.8,0.5,2.7,0.4h4.3
		c1.4,0,2.2-0.4,2.7-1s0.7-2,0.8-4.3c-1.4-0.3-2.7-0.7-4-1.2c0,0.9-0.1,1.7-0.3,2.5c-0.1,0.3-0.5,0.5-1.1,0.5h-1.2
		c-0.2,0-0.4,0-0.5-0.2c-0.1-0.3-0.1-0.6-0.1-0.9v-8.1h-6.4l0,0c0.2-0.9,0.4-1.8,0.7-2.6c0.1-0.2,0.2-0.5,0.2-0.8
		c-0.1-0.1-1.6-0.3-4.6-0.4c0,0.3-0.1,1-0.2,1.9s-0.2,1.6-0.2,1.9h-7.4v3.3h6.8c-0.6,3.2-3.7,5.4-9.2,6.4c0.9,1.1,1.8,2.3,2.5,3.6
		C339.3,145.2,342.9,141.8,343.6,137z"/>
	<path class="st2" d="M335.1,125.2h17v2.5h3.9V122h-10.1c0-0.7-0.1-1.4-0.1-2.1c-0.1-0.4-0.1-0.8-0.1-1c0,0-0.2,0-0.7,0s-1,0-1.7,0
		c-0.8,0-1.6,0-2.3,0.2c0.2,0.7,0.5,1.7,0.8,3h-10.4v6h3.8V125.2z"/>
	<path class="st2" d="M342.1,128.3l0.2-0.2c0.4-0.2,0.5-0.5,0.2-0.7c-1.4-0.8-2.5-1.5-3.4-2c-2.3,2.3-5,4.2-8,5.7l2.9,2.4
		C336.9,132,339.6,130.3,342.1,128.3z"/>
	<path class="st2" d="M380.8,144.6c1.4,0.4,2.7,1.1,3.9,2c3.9-4,5.7-8.2,5.4-12.4v-3h2.5v15.4h4v-15.4h3v-3.4h-9.4v-4.2l5.7-0.3
		l3.4-0.2c-0.7-1.4-1.5-2.8-2.4-4.1c-3.4,1.1-7,1.7-10.6,1.7v11.6c0.1,2.4-0.3,4.8-1.2,7C384.1,141.3,382.6,143.1,380.8,144.6z"/>
	<path class="st2" d="M374.3,146.8c1.7-2.9,2.7-6.2,3-9.6h3.4v1.1h3.9v-11.7h-7.1v-2.9c3.4-0.4,6.1-0.7,8-0.9v0
		c-0.5-1.1-1.1-2.1-1.8-3.1l-0.5-0.9c-3.1,1.1-6.3,1.9-9.5,2.2v14.3c0,1.5-0.1,3-0.5,4.5c-0.5,1.7-1.1,3.3-1.9,4.8
		C372.4,145.1,373.4,145.9,374.3,146.8z M377.4,129.8h3.3v4.3h-3.3V129.8z"/>
	<rect x="0.6" y="154.4" class="st2" width="2.3" height="12.5"/>
	<path class="st2" d="M10.4,157.7c-1.2,0-2.3,0.6-2.9,1.6h0l-0.1-1.4h-2c0.1,0.8,0.1,1.7,0.1,2.7l0,6.3h2.3v-5.3
		c0-0.2,0-0.5,0.1-0.7c0.2-0.8,1-1.3,1.8-1.3c1.2,0,1.7,1,1.7,2.3v5.1h2.3v-5.4C13.6,158.7,12,157.7,10.4,157.7z"/>
	<path class="st2" d="M19.5,161.5c-1.2-0.4-1.6-0.7-1.6-1.3s0.5-1,1.3-1c0.7,0,1.3,0.2,1.9,0.5l0.5-1.6c-0.7-0.4-1.6-0.5-2.4-0.5
		c-2.1,0-3.4,1.2-3.4,2.8c0,1.1,0.7,2,2.5,2.6c1.1,0.4,1.5,0.7,1.5,1.3s-0.5,1-1.5,1c-0.8,0-1.6-0.3-2.3-0.7l-0.5,1.7
		c0.9,0.4,1.8,0.7,2.8,0.6c2.4,0,3.7-1.2,3.7-2.8C21.9,163,21.1,162.1,19.5,161.5z"/>
	<path class="st2" d="M26.4,155.6l-2.3,0.6v1.7h-1.3v1.7h1.3v4.2c-0.1,0.9,0.2,1.8,0.7,2.5c0.5,0.5,1.3,0.8,2,0.8
		c0.6,0,1.1-0.1,1.7-0.2v-1.7c-0.3,0.1-0.6,0.1-0.9,0.1c-0.9,0-1.2-0.6-1.2-1.7v-4h2.2v-1.7h-2.2V155.6z"/>
	<path class="st2" d="M31.5,153.9c-0.7,0-1.3,0.5-1.4,1.2c0,0.7,0.5,1.3,1.2,1.4h0c0,0,0.1,0,0.1,0c0.7,0,1.3-0.6,1.2-1.3
		C32.8,154.5,32.2,153.9,31.5,153.9z"/>
	<rect x="30.3" y="157.9" class="st2" width="2.3" height="9"/>
	<path class="st2" d="M37.6,155.6l-2.3,0.6v1.7H34v1.7h1.3v4.2c-0.1,0.9,0.2,1.8,0.7,2.5c0.5,0.5,1.3,0.8,2,0.8
		c0.6,0,1.1-0.1,1.7-0.2v-1.7c-0.3,0.1-0.6,0.1-0.9,0.1c-0.9,0-1.2-0.6-1.2-1.7v-4h2.2v-1.7h-2.2V155.6z"/>
	<path class="st2" d="M49.6,157.9h-2.2v5.5c0,0.2,0,0.5-0.1,0.7c-0.3,0.7-1,1.2-1.8,1.2c-1.2,0-1.7-1-1.7-2.5v-4.9h-2.3v5.3
		c0,2.9,1.5,3.9,3.1,3.9c1.2,0,2.2-0.5,2.9-1.5l0.1,1.3h2c-0.1-0.7-0.1-1.6-0.1-2.7V157.9z"/>
	<path class="st2" d="M54.7,155.6l-2.3,0.6v1.7h-1.3v1.7h1.3v4.2c-0.1,0.9,0.2,1.8,0.7,2.5c0.5,0.5,1.3,0.8,2,0.8
		c0.6,0,1.1-0.1,1.7-0.2l0-1.7c-0.3,0.1-0.6,0.1-0.9,0.1c-0.9,0-1.2-0.6-1.2-1.7v-4h2.2v-1.7h-2.2V155.6z"/>
	<path class="st2" d="M62.3,157.6c-2.9,0-4.4,2.4-4.4,4.8c-0.2,2.4,1.6,4.4,4,4.6c0.2,0,0.5,0,0.7,0c1.1,0,2.1-0.2,3.2-0.6l-0.3-1.6
		c-0.8,0.3-1.6,0.4-2.5,0.4c-1.5,0-2.7-0.7-2.8-2.3l6,0c0.1-0.3,0.1-0.7,0.1-1C66.2,160,65.2,157.6,62.3,157.6z M64.1,161.4h-4
		c0-1.2,0.9-2.1,2.1-2.2c1.1,0,1.9,0.9,1.9,2C64.1,161.3,64.1,161.4,64.1,161.4z"/>
	<path class="st2" d="M76.5,157.7c-0.2,0-0.3,0-0.5,0c-2.5-0.1-4.6,1.8-4.7,4.2c0,0.2,0,0.4,0,0.5c-0.2,2.4,1.7,4.5,4.1,4.6
		c0.2,0,0.3,0,0.5,0l0,0c2.5,0.1,4.5-1.8,4.6-4.3c0-0.2,0-0.3,0-0.5C80.7,159.9,78.9,157.9,76.5,157.7z M75.9,165.5L75.9,165.5
		c-1.4,0-2.2-1.3-2.2-3c0-1.5,0.7-3.1,2.3-3.1c1.6,0,2.2,1.6,2.2,3C78.1,164.2,77.2,165.5,75.9,165.5z"/>
	<path class="st2" d="M83.7,154.4c-0.8,0.8-1.2,1.9-1.1,3.1v0.4h-1.2v1.7h1.2v7.3l2.2,0v-7.3h2v-1.7h-2v-0.5c0-1.1,0.4-2.1,1.5-2.1
		c0.3,0,0.7,0,1,0.2l0.2-1.8c-0.5-0.2-1-0.2-1.5-0.2C85.2,153.5,84.3,153.8,83.7,154.4z"/>
	<path class="st2" d="M96.5,159.6c-1.7-0.6-2.4-1-2.4-2c0-0.7,0.6-1.5,2.1-1.5c0.9,0,1.7,0.2,2.5,0.6l0.5-1.8c-0.9-0.4-2-0.6-3-0.6
		c-2.7,0-4.4,1.6-4.4,3.6c0,1.8,1.3,2.9,3.4,3.6c1.6,0.6,2.2,1,2.2,2.1s-0.8,1.7-2.3,1.7c-1.1,0-2.1-0.3-3-0.8l-0.5,1.8
		c1,0.5,2.2,0.8,3.4,0.8c3.2,0,4.7-1.8,4.7-3.8C99.8,161.5,98.7,160.4,96.5,159.6z"/>
	<path class="st2" d="M106.4,157.7c-0.2,0-0.3,0-0.5,0c-2.5-0.1-4.6,1.8-4.7,4.2c0,0.2,0,0.4,0,0.5c-0.2,2.4,1.7,4.5,4.1,4.6
		c0.2,0,0.3,0,0.5,0l0,0c2.5,0.1,4.5-1.8,4.6-4.3c0-0.2,0-0.3,0-0.5C110.6,159.9,108.8,157.9,106.4,157.7z M105.8,165.5L105.8,165.5
		c-1.4,0-2.2-1.3-2.2-3c0-1.5,0.7-3.1,2.3-3.1c1.6,0,2.2,1.6,2.2,3C108,164.2,107.1,165.5,105.8,165.5z"/>
	<path class="st2" d="M113.7,154.4c-0.8,0.8-1.2,1.9-1.1,3.1v0.4h-1.2v1.7h1.2v7.3l2.2,0v-7.3h2v-1.7h-2v-0.5c0-1.1,0.4-2.1,1.5-2.1
		c0.3,0,0.7,0,1,0.2l0.2-1.8c-0.5-0.2-1-0.2-1.5-0.2C115.2,153.5,114.3,153.8,113.7,154.4z"/>
	<path class="st2" d="M121.1,155.6l-2.3,0.6v1.7h-1.3v1.7h1.3v4.2c-0.1,0.9,0.2,1.8,0.7,2.5c0.5,0.5,1.3,0.8,2,0.8
		c0.6,0,1.1-0.1,1.7-0.2l0-1.7c-0.3,0.1-0.6,0.1-0.9,0.1c-0.9,0-1.2-0.6-1.2-1.7v-4h2.2v-1.7h-2.2V155.6z"/>
	<path class="st2" d="M134.1,161.9c-0.2,1-0.5,2-0.6,3c-0.2-1-0.4-2-0.7-3l-1.1-4h-1.8l-1.2,4.1c-0.3,0.9-0.5,1.9-0.7,2.9
		c-0.2-1-0.4-1.9-0.6-2.9l-0.9-4.1h-2.3l2.7,9h2.1l1.1-3.7c0.3-0.9,0.5-1.9,0.7-2.9c0.2,1,0.4,1.9,0.7,2.9l1.1,3.7h2l2.8-9h-2.2
		L134.1,161.9z"/>
	<path class="st2" d="M145.8,161.5c0-2-0.8-3.8-3.7-3.8c-1.1,0-2.3,0.2-3.3,0.8l0.5,1.5c0.7-0.4,1.6-0.7,2.4-0.7
		c1.6,0,1.8,1,1.8,1.6v0.2c-3.3,0-5.3,1.1-5.3,3.4c0,1.5,1.2,2.7,2.6,2.7c0.1,0,0.1,0,0.2,0c1,0,2-0.4,2.7-1.2h0l0.2,1h2.1
		c-0.1-0.7-0.2-1.4-0.1-2.2L145.8,161.5z M143.6,163.8c0,0.2,0,0.3-0.1,0.5c-0.3,0.8-1,1.3-1.8,1.2c-0.7,0.1-1.2-0.4-1.3-1.1
		c0-0.1,0-0.1,0-0.2c0-1.4,1.5-1.7,3.1-1.7V163.8z"/>
	<path class="st2" d="M150.3,159.6L150.3,159.6l-0.1-1.7h-2c0.1,0.8,0.1,1.7,0.1,2.9l0,6.1h2.3v-4.7c0-0.2,0-0.5,0.1-0.7
		c0.1-1,1-1.7,2-1.7c0.2,0,0.5,0,0.7,0.1v-2.1c-0.2,0-0.4-0.1-0.5,0C151.6,157.7,150.6,158.5,150.3,159.6z"/>
	<path class="st2" d="M158.5,157.6c-2.9,0-4.4,2.4-4.4,4.8c-0.2,2.4,1.6,4.4,4,4.6c0.2,0,0.5,0,0.7,0c1.1,0,2.1-0.2,3.1-0.6
		l-0.3-1.6c-0.8,0.3-1.6,0.4-2.5,0.4c-1.5,0-2.7-0.7-2.8-2.3l6,0c0.1-0.3,0.1-0.7,0.1-1C162.4,160,161.4,157.6,158.5,157.6z
		 M160.3,161.4h-4c0-1.2,0.9-2.1,2.1-2.2c1.1,0,1.9,0.9,1.9,2C160.3,161.3,160.3,161.4,160.3,161.4z"/>
	<path class="st2" d="M174.3,156.1c0.8,0,1.7,0.2,2.4,0.5l0.5-1.8c-0.9-0.4-2-0.6-3-0.6c-3.8,0-6.7,2.5-6.7,6.6
		c0,3.8,2.4,6.3,6.4,6.3c1.1,0,2.2-0.2,3.2-0.6l-0.4-1.8c-0.8,0.3-1.6,0.5-2.5,0.5c-2.8,0-4.3-1.8-4.3-4.5
		C169.9,157.7,171.8,156.1,174.3,156.1z"/>
	<path class="st2" d="M183.9,157.7c-0.5,0-1.1,0.1-1.6,0.4c-0.5,0.2-0.8,0.6-1.1,1v-5.4H179l0,13.2h2.3v-5.4c0,0,0-0.1,0-0.1
		c0-1,0.8-1.9,1.9-1.9c1.3,0,1.7,1,1.7,2.3v5.1h2.3v-5.3C187.1,158.7,185.5,157.7,183.9,157.7z"/>
	<path class="st2" d="M190.8,153.9c-0.7,0-1.3,0.5-1.4,1.2c0,0.7,0.5,1.3,1.2,1.4c0,0,0.1,0,0.1,0c0.7,0,1.2-0.6,1.2-1.3
		C192.1,154.5,191.5,153.9,190.8,153.9z"/>
	<rect x="189.6" y="157.9" class="st2" width="2.3" height="9"/>
	<path class="st2" d="M199.3,157.7c-1.2,0-2.3,0.6-2.9,1.6h-0.1l-0.1-1.4h-2c0.1,0.8,0.1,1.7,0.1,2.7l0,6.3h2.3v-5.3
		c0-0.2,0-0.5,0.1-0.7c0.2-0.8,1-1.3,1.8-1.3c1.2,0,1.7,1,1.7,2.3v5.1h2.3v-5.4C202.5,158.7,200.9,157.7,199.3,157.7z"/>
	<path class="st2" d="M208.8,157.6c-2.9,0-4.4,2.4-4.4,4.8c-0.2,2.4,1.6,4.4,4,4.6c0.2,0,0.5,0,0.7,0c1.1,0,2.2-0.2,3.2-0.6
		l-0.3-1.6c-0.8,0.3-1.6,0.4-2.5,0.4c-1.5,0-2.7-0.7-2.8-2.3l6,0c0.1-0.3,0.1-0.7,0.1-1C212.7,160,211.7,157.6,208.8,157.6z
		 M210.6,161.4h-4c0-1.2,0.9-2.1,2.1-2.2c1.1,0,1.9,0.9,1.9,2C210.6,161.3,210.6,161.4,210.6,161.4z"/>
	<path class="st2" d="M217.9,161.5c-1.1-0.4-1.6-0.7-1.6-1.3s0.5-1,1.3-1c0.7,0,1.3,0.2,1.9,0.5l0.5-1.6c-0.7-0.4-1.6-0.5-2.4-0.5
		c-2.1,0-3.4,1.2-3.4,2.8c0,1.1,0.7,2,2.5,2.6c1.1,0.4,1.5,0.7,1.5,1.3s-0.5,1-1.5,1c-0.8,0-1.6-0.3-2.3-0.7l-0.5,1.7
		c0.9,0.4,1.8,0.7,2.8,0.6c2.4,0,3.7-1.2,3.7-2.8C220.3,163,219.6,162.1,217.9,161.5z"/>
	<path class="st2" d="M226.1,157.6c-2.9,0-4.4,2.4-4.4,4.8c-0.2,2.4,1.6,4.4,4,4.6c0.2,0,0.5,0,0.7,0c1.1,0,2.1-0.2,3.2-0.6
		l-0.3-1.6c-0.8,0.3-1.6,0.4-2.5,0.4c-1.5,0-2.7-0.7-2.8-2.3l6,0c0.1-0.3,0.1-0.7,0.1-1C230,160,229,157.6,226.1,157.6z
		 M227.8,161.4h-4c0-1.2,0.9-2.1,2.1-2.2c1.1,0.1,2,1,1.9,2.1C227.8,161.4,227.8,161.4,227.8,161.4z"/>
	<path class="st2" d="M238.8,154.4l-4,12.5h2.4l1.1-3.5h4l1.1,3.5h2.5l-4.1-12.5H238.8z M238.6,161.7l1-3.1c0.2-0.7,0.4-1.6,0.6-2.3
		c0.2,0.7,0.4,1.6,0.6,2.3l1,3.1L238.6,161.7z"/>
	<path class="st2" d="M251.7,159.5c0.6,0,1.2,0.1,1.7,0.3l0.4-1.7c-0.7-0.3-1.5-0.4-2.2-0.4c-0.2,0-0.3,0-0.5,0
		c-2.6,0.1-4.6,2.2-4.5,4.8c0,0.2,0,0.4,0,0.6c0.2,2.4,2.3,4.2,4.7,4c0.9,0,1.7-0.1,2.5-0.5l-0.3-1.7c-0.6,0.2-1.2,0.4-1.8,0.4
		c-1.6,0-2.9-1.3-2.9-2.9C248.8,160.8,250.1,159.5,251.7,159.5z"/>
	<path class="st2" d="M262.6,161.5c0-2-0.8-3.8-3.7-3.8c-1.1,0-2.3,0.2-3.3,0.8l0.5,1.5c0.7-0.4,1.6-0.7,2.4-0.7
		c1.6,0,1.8,1,1.8,1.6v0.2c-3.3,0-5.4,1.1-5.4,3.4c0,1.5,1.2,2.7,2.7,2.7c0.1,0,0.1,0,0.2,0c1,0,2-0.4,2.7-1.2h0.1l0.1,1h2.1
		c-0.1-0.7-0.2-1.4-0.1-2.2V161.5z M260.4,163.8c0,0.2,0,0.3-0.1,0.5c-0.3,0.8-1,1.3-1.8,1.2c-0.7,0.1-1.2-0.4-1.3-1.1
		c0-0.1,0-0.1,0-0.2c0-1.4,1.5-1.7,3.2-1.7V163.8z"/>
	<path class="st2" d="M273.3,153.8l-2.2,0v5.1c-0.6-0.8-1.5-1.2-2.5-1.2c-2.2,0-4.1,1.8-4,4.8c0,2.8,1.7,4.6,3.9,4.6
		c1.2,0.1,2.3-0.6,2.9-1.6l0.1,1.4h2c0-0.6-0.1-1.6-0.1-2.5V153.8z M271,163c0,0.2,0,0.4-0.1,0.7c-0.2,1-1,1.6-2,1.6
		c-1.4,0-2.3-1.2-2.3-2.9s0.8-3,2.3-3c1,0,1.8,0.7,2,1.6c0,0.2,0.1,0.4,0,0.6L271,163z"/>
	<path class="st2" d="M279.6,157.6c-2.9,0-4.4,2.4-4.4,4.8c-0.2,2.4,1.6,4.4,4,4.6c0.2,0,0.5,0,0.7,0c1.1,0,2.1-0.2,3.2-0.6
		l-0.3-1.6c-0.8,0.3-1.6,0.4-2.5,0.4c-1.5,0-2.7-0.7-2.8-2.3l6,0c0.1-0.3,0.1-0.7,0.1-1C283.5,160,282.5,157.6,279.6,157.6z
		 M281.4,161.4h-4c0-1.2,0.9-2.1,2.1-2.2c1.1,0,1.9,0.9,1.9,2C281.4,161.3,281.4,161.4,281.4,161.4z"/>
	<path class="st2" d="M295.6,157.7c-0.7,0-1.3,0.2-1.8,0.5c-0.4,0.3-0.8,0.7-1.1,1.1c-0.4-1-1.4-1.7-2.5-1.7c-1.1,0-2.2,0.6-2.8,1.5
		h0l-0.1-1.3h-2c0.1,0.8,0.1,1.7,0.1,2.7l0,6.3h2.2v-5.3c0-0.3,0-0.5,0.1-0.8c0.2-0.7,0.9-1.3,1.7-1.3c1,0,1.6,0.9,1.6,2.2v5.2h2.2
		v-5.4c0-0.3,0-0.5,0.1-0.8c0.2-0.7,0.9-1.2,1.6-1.2c1.1,0,1.6,0.9,1.6,2.4v5h2.2v-5.3C298.6,158.7,297.1,157.7,295.6,157.7z"/>
	<path class="st2" d="M304.9,162.7c-0.2,0.6-0.3,1.3-0.5,1.8h-0.1c-0.1-0.5-0.3-1.2-0.5-1.8l-1.6-4.8l-2.5,0l3.3,8.3
		c0.1,0.1,0.1,0.3,0.1,0.5c0,0.1-0.1,0.3-0.1,0.4c-0.3,0.6-0.7,1.1-1.2,1.4c-0.4,0.3-0.8,0.5-1.3,0.6l0.5,1.9
		c0.9-0.2,1.7-0.6,2.4-1.2c1.1-0.9,1.9-2.4,3.1-5.8l2.3-6.2h-2.4L304.9,162.7z"/>
	<path class="st2" d="M317.5,157.7c-0.2,0-0.3,0-0.5,0c-2.5-0.1-4.6,1.8-4.7,4.2c0,0.2,0,0.4,0,0.5c-0.2,2.4,1.7,4.5,4.1,4.6
		c0.1,0,0.3,0,0.4,0l0,0c2.5,0.1,4.5-1.8,4.6-4.3c0-0.2,0-0.3,0-0.5C321.7,159.9,319.9,157.9,317.5,157.7z M317,165.5L317,165.5
		c-1.4,0-2.3-1.3-2.3-3c0-1.5,0.7-3.1,2.3-3.1s2.2,1.6,2.2,3C319.2,164.2,318.3,165.5,317,165.5z"/>
	<path class="st2" d="M324.7,154.4c-0.8,0.8-1.2,1.9-1.1,3.1v0.4h-1.2v1.7h1.2v7.3l2.2,0v-7.3h2v-1.7h-2v-0.5c0-1.1,0.4-2.1,1.5-2.1
		c0.3,0,0.7,0,1,0.2l0.2-1.8c-0.5-0.2-1-0.2-1.4-0.2C326.2,153.5,325.4,153.8,324.7,154.4z"/>
	<path class="st2" d="M338.1,159.6c-1.7-0.6-2.4-1-2.4-2c0-0.7,0.6-1.5,2.1-1.5c0.9,0,1.7,0.2,2.5,0.6l0.5-1.8c-0.9-0.4-2-0.6-3-0.6
		c-2.7,0-4.4,1.6-4.4,3.6c0,1.8,1.3,2.9,3.4,3.6c1.6,0.6,2.2,1,2.2,2.1s-0.8,1.7-2.3,1.7c-1.1,0-2.1-0.3-3-0.8l-0.5,1.8
		c1,0.5,2.2,0.8,3.4,0.8c3.2,0,4.7-1.8,4.7-3.8C341.3,161.5,340.2,160.4,338.1,159.6z"/>
	<path class="st2" d="M347.6,159.5c0.6,0,1.2,0.1,1.7,0.3l0.4-1.7c-0.7-0.3-1.5-0.4-2.2-0.4c-0.2,0-0.3,0-0.5,0
		c-2.6,0.1-4.6,2.2-4.5,4.8c0,0.2,0,0.4,0,0.6c0.2,2.4,2.3,4.2,4.6,4c0.9,0,1.7-0.1,2.5-0.5l-0.3-1.7c-0.6,0.2-1.2,0.4-1.8,0.4
		c-1.6,0-2.9-1.3-2.9-2.9C344.6,160.8,346,159.5,347.6,159.5z"/>
	<rect x="351.1" y="157.9" class="st2" width="2.3" height="9"/>
	<path class="st2" d="M352.4,153.9c-0.7,0-1.3,0.5-1.4,1.2c0,0.7,0.5,1.3,1.2,1.4c0,0,0.1,0,0.1,0c0.7,0,1.2-0.6,1.2-1.3
		C353.6,154.5,353.1,153.9,352.4,153.9z"/>
	<path class="st2" d="M359.7,157.6c-2.9,0-4.4,2.4-4.4,4.8c-0.2,2.4,1.6,4.4,4,4.6c0.2,0,0.5,0,0.7,0c1.1,0,2.1-0.2,3.2-0.6
		l-0.3-1.6c-0.8,0.3-1.6,0.4-2.5,0.4c-1.5,0-2.7-0.7-2.8-2.3l6,0c0.1-0.3,0.1-0.7,0.1-1C363.6,160,362.6,157.6,359.7,157.6z
		 M361.5,161.4h-4c0-1.2,0.9-2.1,2.1-2.2c1.1,0,1.9,0.9,1.9,2C361.5,161.3,361.5,161.4,361.5,161.4z"/>
	<path class="st2" d="M370.4,157.7c-1.2,0-2.3,0.6-2.9,1.6l-0.1-1.4h-2c0.1,0.8,0.1,1.7,0.1,2.7v6.3h2.2v-5.3c0-0.2,0-0.5,0.1-0.7
		c0.2-0.8,1-1.3,1.8-1.3c1.2,0,1.7,1,1.7,2.3v5.1h2.3v-5.4C373.6,158.7,371.9,157.7,370.4,157.7z"/>
	<path class="st2" d="M380.5,159.5c0.6,0,1.2,0.1,1.7,0.3l0.4-1.7c-0.7-0.3-1.5-0.4-2.2-0.4c-0.2,0-0.4,0-0.5,0
		c-2.6,0.1-4.6,2.3-4.5,4.8c0,0.2,0,0.4,0,0.6c0.2,2.4,2.3,4.2,4.6,4c0.9,0,1.7-0.1,2.5-0.5l-0.3-1.7c-0.6,0.2-1.2,0.4-1.8,0.4
		c-1.6,0-2.9-1.3-2.9-2.9C377.6,160.8,378.9,159.5,380.5,159.5z"/>
	<path class="st2" d="M388.1,157.6c-2.9,0-4.4,2.4-4.4,4.8c-0.2,2.4,1.6,4.4,4,4.6c0.2,0,0.5,0,0.7,0c1.1,0,2.2-0.2,3.2-0.6
		l-0.3-1.6c-0.8,0.3-1.6,0.4-2.5,0.4c-1.5,0-2.7-0.7-2.8-2.3l6,0c0.1-0.3,0.1-0.7,0.1-1C392,160,391,157.6,388.1,157.6z
		 M389.8,161.4h-4c0-1.2,0.9-2.1,2.1-2.2c1.1,0,1.9,0.9,1.9,2C389.8,161.3,389.8,161.4,389.8,161.4z"/>
	<path class="st2" d="M397.2,161.5c-1.1-0.4-1.6-0.7-1.6-1.3s0.5-1,1.3-1c0.7,0,1.3,0.2,1.9,0.5l0.5-1.6c-0.7-0.4-1.6-0.5-2.4-0.5
		c-2.1,0-3.4,1.2-3.4,2.8c0,1.1,0.7,2,2.5,2.6c1.1,0.4,1.5,0.7,1.5,1.3s-0.5,1-1.5,1c-0.8,0-1.6-0.3-2.3-0.7l-0.5,1.7
		c0.9,0.4,1.8,0.7,2.8,0.6c2.4,0,3.7-1.2,3.7-2.8C399.6,163,398.8,162.1,397.2,161.5z"/>
</g>
</svg>
